<svg width="358" height="114" viewBox="0 0 358 114" fill="none" xmlns="http://www.w3.org/2000/svg">
<path fill-rule="evenodd" clip-rule="evenodd" d="M0 4C0 1.79086 1.79086 0 4 0H354C356.209 0 358 1.79086 358 4V37C358 39.2091 356.181 40.9487 354.04 41.4937C347.119 43.2558 342 49.5301 342 57C342 64.4699 347.119 70.7442 354.04 72.5063C356.181 73.0513 358 74.7909 358 77V110C358 112.209 356.209 114 354 114H4C1.79086 114 0 112.209 0 110V73.2481C0 73.1106 0.112547 73 0.25 73C9.08656 73 16.25 65.8366 16.25 57C16.25 48.1634 9.08656 41 0.25 41C0.112547 41 0 40.8894 0 40.7519V4Z" fill="#EDE0D4"/>
</svg>
