<svg width="26" height="24" viewBox="0 0 26 24" fill="none" xmlns="http://www.w3.org/2000/svg">
<path d="M13.4248 20.5L11.9054 19.278C10.1414 17.8524 8.68308 16.6225 7.53038 15.5885C6.37769 14.5545 5.46077 13.6263 4.77963 12.8038C4.0985 11.9813 3.62257 11.2254 3.35186 10.536C3.08116 9.8467 2.9458 9.1417 2.9458 8.42104C2.9458 6.94837 3.49595 5.71854 4.59625 4.73154C5.69655 3.74454 7.06756 3.25104 8.70927 3.25104C9.61746 3.25104 10.482 3.42337 11.3028 3.76804C12.1237 4.1127 12.831 4.59837 13.4248 5.22504C14.0187 4.59837 14.726 4.1127 15.5468 3.76804C16.3677 3.42337 17.2322 3.25104 18.1404 3.25104C19.7821 3.25104 21.1531 3.74454 22.2534 4.73154C23.3537 5.71854 23.9039 6.94837 23.9039 8.42104C23.9039 9.1417 23.7685 9.8467 23.4978 10.536C23.2271 11.2254 22.7512 11.9813 22.0701 12.8038C21.3889 13.6263 20.472 14.5545 19.3193 15.5885C18.1666 16.6225 16.7083 17.8524 14.9443 19.278L13.4248 20.5ZM13.4248 17.962C15.1015 16.6147 16.4812 15.4593 17.5641 14.4958C18.6469 13.5323 19.5027 12.6941 20.1314 11.9813C20.7602 11.2685 21.1968 10.634 21.4413 10.0778C21.6858 9.52162 21.8081 8.96937 21.8081 8.42104C21.8081 7.48104 21.4588 6.6977 20.7602 6.07104C20.0616 5.44437 19.1883 5.13104 18.1404 5.13104C17.3196 5.13104 16.5598 5.33862 15.8612 5.75379C15.1626 6.16895 14.6823 6.6977 14.4204 7.34004H12.4293C12.1674 6.6977 11.6871 6.16895 10.9885 5.75379C10.2899 5.33862 9.53013 5.13104 8.70927 5.13104C7.66137 5.13104 6.78812 5.44437 6.08951 6.07104C5.39091 6.6977 5.04161 7.48104 5.04161 8.42104C5.04161 8.96937 5.16386 9.52162 5.40838 10.0778C5.65289 10.634 6.08951 11.2685 6.71826 11.9813C7.347 12.6941 8.20279 13.5323 9.28562 14.4958C10.3685 15.4593 11.7482 16.6147 13.4248 17.962Z" fill="#757575"/>
</svg>
